<?xml version="1.0" encoding="UTF-8"?>
<svg version="1.1" xmlns="http://www.w3.org/2000/svg" width="250" height="250">
<path d="M0 0 C9.47488059 -0.32552733 18.94781641 -0.57368102 28.42708397 -0.72537041 C32.82987358 -0.79820938 37.22881853 -0.89682114 41.62939453 -1.05615234 C45.88322715 -1.20919225 50.13338487 -1.29215021 54.38975906 -1.3282814 C56.00649533 -1.35399535 57.62304736 -1.40422324 59.23820114 -1.48022079 C71.53376734 -2.03532387 71.53376734 -2.03532387 75.64914894 1.36100388 C79.11007801 5.18229704 81.53102379 9.49923984 84 14 C85.12334402 15.66811107 86.26255791 17.3259539 87.43359375 18.9609375 C88.43634525 20.43130425 89.43765637 21.90265437 90.4375 23.375 C91.54801954 25.00401366 92.65869924 26.63291814 93.76953125 28.26171875 C94.31174316 29.05755371 94.85395508 29.85338867 95.41259766 30.67333984 C97.80790027 34.18414173 100.21562669 37.68634555 102.625 41.1875 C103.29390259 42.15985596 103.29390259 42.15985596 103.97631836 43.15185547 C104.86988428 44.45073185 105.76351997 45.74956025 106.65722656 47.04833984 C109.39424755 51.02647544 112.1294563 55.0058577 114.86450195 58.98535156 C117.21631933 62.4069411 119.56972302 65.82742274 121.92578125 69.24609375 C126.66836619 76.1305169 131.4028826 83.01703686 136 90 C142.50977272 83.07166321 148.833724 76.09698636 154.7890625 68.6796875 C157.1093495 65.86746685 159.53071134 63.18202737 162 60.5 C165.29331699 56.92207537 168.44651321 53.28460334 171.5 49.5 C174.55348679 45.71539666 177.70668301 42.07792463 181 38.5 C185.11378909 34.0301488 188.97087297 29.40955107 192.78515625 24.68359375 C195.65366638 21.20799153 198.68324043 17.89584721 201.71875 14.56640625 C205.01525265 10.85784077 208.13235469 7.01151234 211.25 3.15234375 C213 1 213 1 214 0 C215.70772358 -0.08713831 217.41898649 -0.10700007 219.12890625 -0.09765625 C220.68061523 -0.09282227 220.68061523 -0.09282227 222.26367188 -0.08789062 C223.35228516 -0.07951172 224.44089844 -0.07113281 225.5625 -0.0625 C227.2012207 -0.05573242 227.2012207 -0.05573242 228.87304688 -0.04882812 C231.58208495 -0.03699826 234.29101599 -0.02051543 237 0 C235.38182825 3.40829937 233.52234036 5.79530758 230.9375 8.5625 C227.68892508 12.10168226 224.57531784 15.69560168 221.5625 19.4375 C217.70174863 24.211403 213.62562925 28.73388428 209.46875 33.25 C207.05621896 35.93737634 204.7674379 38.68965444 202.5 41.5 C199.44651321 45.28460334 196.29331699 48.92207537 193 52.5 C188.88621091 56.9698512 185.02912703 61.59044893 181.21484375 66.31640625 C178.33519113 69.80550916 175.29306124 73.12996921 172.24609375 76.47265625 C169.93812402 79.06962393 167.74444137 81.73404013 165.5625 84.4375 C161.60395178 89.33524683 157.44683829 93.97396317 153.1640625 98.58984375 C152.44992188 99.38519531 151.73578125 100.18054688 151 101 C150.36835938 101.66128906 149.73671875 102.32257813 149.0859375 103.00390625 C147.73172145 104.97380832 147.73172145 104.97380832 148.50390625 107.29296875 C150.44009617 110.79630979 152.63081873 114.04416905 154.9375 117.3125 C155.93632799 118.74600313 156.9350222 120.17959948 157.93359375 121.61328125 C158.69905518 122.70697021 158.69905518 122.70697021 159.47998047 123.82275391 C161.83917244 127.2020141 164.16886481 130.60135523 166.5 134 C167.41650756 135.33344271 168.33317469 136.66677575 169.25 138 C185.75 162 185.75 162 187.1237793 163.99829102 C188.04443216 165.33737791 188.96516841 166.67640747 189.88598633 168.01538086 C192.11733692 171.26023002 194.34743948 174.50591802 196.57421875 177.75390625 C201.93377229 185.56706098 207.33164212 193.35249932 212.75 201.125 C218.82570743 209.84272837 224.84455846 218.59716495 230.8137207 227.38818359 C233.49849359 231.34061512 236.18890173 235.28691205 238.9375 239.1953125 C239.36683838 239.80681152 239.79617676 240.41831055 240.23852539 241.04833984 C241.34113567 242.61323368 242.44958848 244.17400663 243.55859375 245.734375 C245 248 245 248 245 250 C235.52511941 250.32552733 226.05218359 250.57368102 216.57291603 250.72537041 C212.17012642 250.79820938 207.77118147 250.89682114 203.37060547 251.05615234 C199.11677285 251.20919225 194.86661513 251.29215021 190.61024094 251.3282814 C188.99350467 251.35399535 187.37695264 251.40422324 185.76179886 251.48022079 C173.47446721 252.03495211 173.47446721 252.03495211 169.35790062 248.64957047 C166.35315846 245.33853463 164.10166066 241.65978452 161.97341442 237.74376011 C160.53470035 235.16646913 158.83512217 232.78822627 157.12890625 230.3828125 C155.93860893 228.6312235 154.7498134 226.87861303 153.5625 225.125 C152.26063164 223.20948929 150.95854713 221.29412547 149.65625 219.37890625 C149.03105469 218.45867676 148.40585938 217.53844727 147.76171875 216.59033203 C140.27902529 205.58820098 132.69112263 194.659359 125.07397461 183.75 C121.73273069 178.95796856 118.41617736 174.15248236 115.15625 169.3046875 C114.55925293 168.41950439 113.96225586 167.53432129 113.34716797 166.62231445 C112.22053469 164.94769722 111.09952404 163.26928004 109.98486328 161.58666992 C109.48712402 160.84779541 108.98938477 160.1089209 108.4765625 159.34765625 C107.8280835 158.37324585 107.8280835 158.37324585 107.16650391 157.37915039 C106.78155762 156.92403076 106.39661133 156.46891113 106 156 C103.80870288 155.76734524 103.80870288 155.76734524 102.15234375 157.80078125 C97.41221021 163.17627661 92.82292471 168.6424357 88.31640625 174.21484375 C85.15907906 178.01109044 81.81199409 181.61783358 78.46875 185.25 C76.05621896 187.93737634 73.7674379 190.68965444 71.5 193.5 C68.44651321 197.28460334 65.29331699 200.92207537 62 204.5 C57.88621091 208.9698512 54.02912703 213.59044893 50.21484375 218.31640625 C48.04367173 220.94708557 45.79758643 223.47942424 43.5 226 C39.61516081 230.26384789 35.94733467 234.66711199 32.3359375 239.1640625 C31.56507812 240.09992188 30.79421875 241.03578125 30 242 C29.53424561 242.69254883 29.06849121 243.38509766 28.58862305 244.09863281 C26.14490216 247.43470501 24.41129618 249.66797507 20.28320312 250.63916016 C17.17263588 250.78658281 14.16967378 250.70058726 11.0625 250.5 C9.99708984 250.46390625 8.93167969 250.4278125 7.83398438 250.390625 C5.21888684 250.29680984 2.61136019 250.16573994 0 250 C1.61817175 246.59170063 3.47765964 244.20469242 6.0625 241.4375 C9.33018473 237.87703072 12.46479193 234.2606708 15.5 230.5 C19.1126583 226.03435293 22.88893545 221.76715385 26.7578125 217.5234375 C29.04515904 214.94917642 31.21548271 212.30710511 33.375 209.625 C37.05507009 205.07299693 40.92522884 200.76747752 44.90917969 196.48535156 C48.73294676 192.35118772 52.28842028 188.0350225 55.8203125 183.6484375 C57.97757399 181.02724881 60.21311 178.50845719 62.5 176 C65.59555196 172.60401318 68.55151207 169.13828469 71.4375 165.5625 C74.53148714 161.73544273 77.7283055 158.05719127 81.0625 154.4375 C85.62764598 149.47942283 89.86734167 144.32166338 94 139 C89.50183261 131.66672007 84.67032639 124.62502492 79.6887207 117.61572266 C74.8348041 110.78428448 70.08348345 103.88597708 65.35009766 96.97070312 C63.56341204 94.36272368 61.7710915 91.75864194 59.97875977 89.15454102 C55.47497274 82.61044506 50.98436422 76.05741834 46.5 69.5 C38.76489796 58.19189365 31.02010351 46.89189409 23.1887207 35.65014648 C20.45948928 31.7321028 17.73345845 27.81184232 15.00878906 23.890625 C13.67824228 21.97598306 12.34687272 20.06191261 11.01464844 18.1484375 C9.17156193 15.49812577 7.33485831 12.84351246 5.5 10.1875 C4.94199707 9.38723389 4.38399414 8.58696777 3.80908203 7.76245117 C3.30489746 7.03002197 2.80071289 6.29759277 2.28125 5.54296875 C1.83845703 4.90383545 1.39566406 4.26470215 0.93945312 3.60620117 C0 2 0 2 0 0 Z M31 17 C33.86817475 22.20871357 37.03592344 27.04602968 40.5 31.875 C41.5755892 33.38667011 42.65110811 34.89839023 43.7265625 36.41015625 C44.2721582 37.17473145 44.81775391 37.93930664 45.37988281 38.72705078 C47.889346 42.24771116 50.38254633 45.77978673 52.875 49.3125 C53.61097412 50.35482788 53.61097412 50.35482788 54.36181641 51.41821289 C60.00366658 59.41310965 65.61038567 67.43257503 71.21777344 75.45166016 C74.14376733 79.6354306 77.0719831 83.81764524 80 88 C81.16667759 89.66665902 82.33334425 91.33332569 83.5 93 C84.36625 94.2375 84.36625 94.2375 85.25 95.5 C105.66666667 124.66666667 126.08333333 153.83333333 146.5 183 C147.36661255 184.2379834 147.36661255 184.2379834 148.25073242 185.50097656 C149.41504511 187.16432683 150.57927065 188.82773809 151.7434082 190.49121094 C154.69537196 194.70912809 157.64893634 198.92590872 160.60546875 203.140625 C161.49274658 204.41147949 161.49274658 204.41147949 162.39794922 205.70800781 C163.58503111 207.39421473 164.78582139 209.07085891 166.00048828 210.73730469 C168.82810598 214.65366837 171.27343131 218.37327341 173.19921875 222.8125 C176.33032357 229.50736874 176.33032357 229.50736874 182 234 C192.50803537 235.95538106 203.42319875 234.97197785 214 234 C211.1657711 228.85713864 208.04855282 224.07919144 204.625 219.3125 C203.5516556 217.80499195 202.47875721 216.29716627 201.40625 214.7890625 C200.84808594 214.00563477 200.28992188 213.22220703 199.71484375 212.41503906 C196.83095638 208.3536191 193.97846315 204.27032552 191.125 200.1875 C189.94011732 198.49348038 188.75522139 196.79947003 187.5703125 195.10546875 C186.98024414 194.26161621 186.39017578 193.41776367 185.78222656 192.54833984 C182.85623267 188.3645694 179.9280169 184.18235476 177 180 C175.83332241 178.33334098 174.66665575 176.66667431 173.5 175 C172.9225 174.175 172.345 173.35 171.75 172.5 C166.5 165 166.5 165 164.74951172 162.49926758 C163.58451636 160.83501172 162.4194774 159.17078639 161.25439453 157.5065918 C158.31179589 153.30329077 155.36999096 149.09943819 152.4296875 144.89453125 C146.96823569 137.08561332 141.50040068 129.2815462 136 121.5 C129.89924561 112.8691193 123.83901487 104.21010946 117.78222656 95.54833984 C114.85623267 91.3645694 111.9280169 87.18235476 109 83 C107.83332241 81.33334098 106.66665575 79.66667431 105.5 78 C104.9225 77.175 104.345 76.35 103.75 75.5 C102 73 100.25 70.5 98.5 68 C97.9222583 67.17467773 97.3445166 66.34935547 96.74926758 65.49902344 C95.58495489 63.83567317 94.42072935 62.17226191 93.2565918 60.50878906 C90.30462804 56.29087191 87.35106366 52.07409128 84.39453125 47.859375 C83.8030127 47.01213867 83.21149414 46.16490234 82.60205078 45.29199219 C81.41496889 43.60578527 80.21417861 41.92914109 78.99951172 40.26269531 C76.17189402 36.34633163 73.72656869 32.62672659 71.80078125 28.1875 C68.66967643 21.49263126 68.66967643 21.49263126 63 17 C52.49196463 15.04461894 41.57680125 16.02802215 31 17 Z " fill="#000000" transform="translate(2,0)"/>
</svg>
