<svg xmlns="http://www.w3.org/2000/svg" viewBox="0 0 500 500">
  <!-- Background with gradient -->
  <defs>
    <linearGradient id="bgGradient" x1="0%" y1="0%" x2="100%" y2="100%">
      <stop offset="0%" stop-color="#f9f9f9"/>
      <stop offset="100%" stop-color="#f0f0f0"/>
    </linearGradient>
    
    <!-- Glowing effects -->
    <filter id="glow" x="-20%" y="-20%" width="140%" height="140%">
      <feGaussianBlur stdDeviation="5" result="blur"/>
      <feComposite in="SourceGraphic" in2="blur" operator="over"/>
    </filter>
    
    <!-- Text shadow filter -->
    <filter id="textShadow" x="-10%" y="-10%" width="120%" height="120%">
      <feDropShadow dx="0" dy="1" stdDeviation="1" flood-color="#ffffff" flood-opacity="0.8"/>
    </filter>
    
    <!-- Gradients for each quadrant -->
    <linearGradient id="blueGradient" x1="0%" y1="0%" x2="100%" y2="100%">
      <stop offset="0%" stop-color="#3498db"/>
      <stop offset="100%" stop-color="#2980b9"/>
    </linearGradient>
    
    <linearGradient id="purpleGradient" x1="0%" y1="0%" x2="100%" y2="100%">
      <stop offset="0%" stop-color="#9b59b6"/>
      <stop offset="100%" stop-color="#8e44ad"/>
    </linearGradient>
    
    <linearGradient id="greenGradient" x1="0%" y1="0%" x2="100%" y2="100%">
      <stop offset="0%" stop-color="#2ecc71"/>
      <stop offset="100%" stop-color="#27ae60"/>
    </linearGradient>
    
    <linearGradient id="yellowGradient" x1="0%" y1="0%" x2="100%" y2="100%">
      <stop offset="0%" stop-color="#f1c40f"/>
      <stop offset="100%" stop-color="#f39c12"/>
    </linearGradient>
    
    <radialGradient id="centerGlow" cx="50%" cy="50%" r="50%" fx="50%" fy="50%">
      <stop offset="0%" stop-color="#ffffff"/>
      <stop offset="100%" stop-color="#f5f5f5"/>
    </radialGradient>
  </defs>
  
  <!-- Main background -->
  <rect x="0" y="0" width="500" height="500" rx="15" ry="15" fill="url(#bgGradient)" filter="url(#glow)"/>
  
  <!-- Background circle with subtle shadow -->
  <circle cx="250" cy="250" r="240" fill="white" stroke="#e0e0e0" stroke-width="1" filter="url(#glow)"/>
  
  <!-- Dividing lines with animation -->
  <line x1="10" y1="250" x2="490" y2="250" stroke="#666" stroke-width="1.5" stroke-dasharray="5,5">
    <animate attributeName="stroke-dashoffset" from="0" to="20" dur="3s" repeatCount="indefinite"/>
  </line>
  <line x1="250" y1="10" x2="250" y2="490" stroke="#666" stroke-width="1.5" stroke-dasharray="5,5">
    <animate attributeName="stroke-dashoffset" from="0" to="20" dur="3s" repeatCount="indefinite"/>
  </line>
  <line x1="98.22" y1="98.22" x2="401.78" y2="401.78" stroke="#666" stroke-width="1" stroke-dasharray="5,5">
    <animate attributeName="stroke-dashoffset" from="0" to="20" dur="3s" repeatCount="indefinite"/>
  </line>
  <line x1="401.78" y1="98.22" x2="98.22" y2="401.78" stroke="#666" stroke-width="1" stroke-dasharray="5,5">
    <animate attributeName="stroke-dashoffset" from="0" to="20" dur="3s" repeatCount="indefinite"/>
  </line>
  
  <!-- Outer ring segments with gradients -->
  <path d="M 250 10 A 240 240 0 0 1 490 250" fill="none" stroke="url(#blueGradient)" stroke-width="35" stroke-linecap="round"/>
  <path d="M 250 10 A 240 240 0 0 0 10 250" fill="none" stroke="url(#purpleGradient)" stroke-width="35" stroke-linecap="round"/>
  <path d="M 10 250 A 240 240 0 0 0 250 490" fill="none" stroke="url(#greenGradient)" stroke-width="35" stroke-linecap="round"/>
  <path d="M 490 250 A 240 240 0 0 0 250 490" fill="none" stroke="url(#yellowGradient)" stroke-width="35" stroke-linecap="round"/>
  
  <!-- Inner circles -->
  <circle cx="250" cy="250" r="190" fill="white" stroke="#e0e0e0" stroke-width="2"/>
  <circle cx="250" cy="250" r="140" fill="#fafafa" stroke="#e0e0e0" stroke-width="1" opacity="0.7"/>
  <circle cx="250" cy="250" r="90" fill="#f5f5f5" stroke="#e0e0e0" stroke-width="1" opacity="0.5"/>
  
  <!-- Your position (Reforming Observer) -->
  <g filter="url(#glow)">
    <!-- Pulsing animation for the position marker -->
    <circle cx="150" cy="150" r="30" fill="url(#blueGradient)" stroke="#e74c3c" stroke-width="8">
      <animate attributeName="r" values="30;32;30" dur="2s" repeatCount="indefinite"/>
      <animate attributeName="opacity" values="1;0.8;1" dur="2s" repeatCount="indefinite"/>
    </circle>
  </g>
  
  <!-- Quadrant labels with enhanced text visibility -->
  <g>
    <!-- Text background shapes for better readability -->
    <rect x="305" y="82" width="120" height="36" rx="18" ry="18" fill="white" fill-opacity="0.85"/>
    <rect x="40" y="82" width="120" height="36" rx="18" ry="18" fill="white" fill-opacity="0.85"/>
    <rect x="40" y="382" width="120" height="36" rx="18" ry="18" fill="white" fill-opacity="0.85"/>
    <rect x="305" y="382" width="120" height="36" rx="18" ry="18" fill="white" fill-opacity="0.85"/>
    
    <!-- Text on top of background shapes -->
    <text x="365" y="107" font-family="Poppins, Arial" font-size="24" font-weight="bold" fill="#3498db" text-anchor="middle" dominant-baseline="middle">ANALYTICAL</text>
    <text x="100" y="107" font-family="Poppins, Arial" font-size="24" font-weight="bold" fill="#9b59b6" text-anchor="middle" dominant-baseline="middle">REFLECTIVE</text>
    <text x="100" y="407" font-family="Poppins, Arial" font-size="24" font-weight="bold" fill="#2ecc71" text-anchor="middle" dominant-baseline="middle">METHODICAL</text>
    <text x="365" y="407" font-family="Poppins, Arial" font-size="24" font-weight="bold" fill="#f1c40f" text-anchor="middle" dominant-baseline="middle">PRACTICAL</text>
  </g>
  
  <!-- Position label with improved visibility -->
  <g>
    <!-- Text visible on top of everything else -->
    <rect x="110" y="140" width="80" height="30" rx="15" ry="15" fill="white" fill-opacity="0.9" stroke="#3498db" stroke-width="2"/>
    <text x="150" y="160" font-family="Poppins, Arial" font-size="16" font-weight="bold" fill="#3498db" text-anchor="middle" dominant-baseline="middle">RO</text>
    
    <rect x="75" y="185" width="150" height="40" rx="20" ry="20" fill="white" fill-opacity="0.9" stroke="#3498db" stroke-width="2"/>
    <text x="150" y="210" font-family="Poppins, Arial" font-size="16" font-weight="600" fill="#2c3e50" text-anchor="middle" dominant-baseline="middle">Reforming Observer</text>
  </g>
  
  <!-- Center decoration with glowing effect -->
  <circle cx="250" cy="250" r="50" fill="url(#centerGlow)" stroke="#e0e0e0" stroke-width="2" filter="url(#glow)"/>
  
  <!-- Color dynamics representation with 3D effect -->
  <g transform="translate(250, 250) scale(1) translate(-250, -250)">
    <rect x="230" y="230" width="20" height="40" fill="#3498db" rx="2" ry="2" stroke="#2980b9" stroke-width="1"/>
    <rect x="250" y="230" width="20" height="40" fill="#e74c3c" rx="2" ry="2" stroke="#c0392b" stroke-width="1"/>
    <rect x="230" y="270" width="20" height="15" fill="#2ecc71" rx="2" ry="2" stroke="#27ae60" stroke-width="1"/>
    <rect x="250" y="270" width="20" height="13" fill="#f1c40f" rx="2" ry="2" stroke="#f39c12" stroke-width="1"/>
  </g>
  
  <!-- Legend with enhanced visibility -->
  <g>
    <rect x="330" y="145" width="150" height="115" rx="10" ry="10" fill="white" fill-opacity="0.9" stroke="#e0e0e0" stroke-width="1"/>
    
    <text x="380" y="170" font-family="Poppins, Arial" font-size="14" font-weight="bold" fill="#2c3e50">Your Position:</text>
    <circle cx="360" y="167" r="8" fill="#3498db" stroke="#e74c3c" stroke-width="2"/>
    
    <text x="380" y="195" font-family="Poppins, Arial" font-size="14" font-weight="500" fill="#2c3e50">Reforming Observer</text>
    
    <text x="380" y="220" font-family="Poppins, Arial" font-size="14" font-weight="500" fill="#3498db">Blue: 64%</text>
    <text x="380" y="245" font-family="Poppins, Arial" font-size="14" font-weight="500" fill="#e74c3c">Red: 60%</text>
  </g>
  
  <!-- Secondary legend showing other colors -->
  <g>
    <rect x="330" y="270" width="150" height="70" rx="10" ry="10" fill="white" fill-opacity="0.9" stroke="#e0e0e0" stroke-width="1"/>
    
    <text x="380" y="295" font-family="Poppins, Arial" font-size="14" font-weight="500" fill="#2ecc71">Green: 47%</text>
    <text x="380" y="320" font-family="Poppins, Arial" font-size="14" font-weight="500" fill="#f1c40f">Yellow: 43%</text>
  </g>
</svg>