<?xml version="1.0" encoding="UTF-8"?>
<svg version="1.1" xmlns="http://www.w3.org/2000/svg" width="1920" height="1920">
<path d="M0 0 C1.0806221 -0.00282738 2.1612442 -0.00565475 3.27461243 -0.00856781 C9.01478304 -0.0234708 14.75492919 -0.03275139 20.49511719 -0.03710938 C25.14298515 -0.04145634 29.79066355 -0.05521313 34.43847656 -0.078125 C63.78085192 -0.21974692 92.81168056 0.42516897 122.03125 3.203125 C123.15825317 3.30790161 124.28525635 3.41267822 125.44641113 3.52062988 C131.27885931 4.07408079 137.09355456 4.72237289 142.90625 5.453125 C143.74326447 5.55572632 144.58027893 5.65832764 145.44265747 5.76403809 C233.5400086 16.60522203 319.81316434 39.10659298 503.11376953 123.49414062 C505.8100972 125.07357943 508.51541376 126.63658176 511.22424316 128.19445801 C527.1661365 137.3679159 542.76697447 146.92919687 558.03125 157.203125 C558.98676758 157.84556152 559.94228516 158.48799805 560.92675781 159.14990234 C577.62922655 170.40664129 593.98257661 182.0349885 610.03125 194.203125 C610.5969873 194.63093262 611.16272461 195.05874023 611.74560547 195.49951172 C623.9462132 204.73884247 635.81520303 214.39476332 647.45581055 224.32885742 C650.70537402 227.09901838 654.00574153 229.79066587 657.34375 232.453125 C662.87573372 236.94684785 668.03819839 241.80171777 673.19848633 246.71191406 C676.4780989 249.83000396 679.78692021 252.8875197 683.20703125 255.8515625 C686.28135933 258.51899972 689.19018574 261.28527522 692.03125 264.203125 C694.86614999 267.07238741 697.70245659 269.84799211 700.78125 272.453125 C709.22503616 279.69311272 717.14671967 287.79413461 724.328125 296.28125 C726.46524663 298.69286432 728.73919279 300.93851757 731.03125 303.203125 C734.55879647 306.6935394 737.90509474 310.24956814 741.12890625 314.01953125 C743.03813299 316.21102559 745.00131541 318.34641431 746.97851562 320.4765625 C751.73694829 325.60603574 756.27102968 330.84762399 760.66015625 336.30078125 C763.34956288 339.59275675 766.12298707 342.80314452 768.90625 346.015625 C774.38553803 352.36450326 779.60824229 358.88525885 784.73291016 365.52246094 C785.9671001 367.12008477 787.20798038 368.7125336 788.44921875 370.3046875 C804.48724609 390.97359712 819.76499138 412.27172236 834.03125 434.203125 C834.78776855 435.36473145 834.78776855 435.36473145 835.55957031 436.54980469 C881.67458481 507.60822403 917.57138741 583.93112207 972.03125 772.203125 C972.25911194 773.35180054 972.25911194 773.35180054 972.49157715 774.52368164 C980.09506694 813.05098557 985.22391692 852.03425179 988.03125 891.203125 C988.16224342 893.00580086 988.16224342 893.00580086 988.29588318 894.84489441 C989.09478613 906.95641897 989.21251778 919.03687482 989.234375 931.171875 C989.23720238 932.2524971 989.24002975 933.3331192 989.24294281 934.44648743 C989.2578458 940.18665804 989.26712639 945.92680419 989.27148438 951.66699219 C989.27583134 956.31486015 989.28958813 960.96253855 989.3125 965.61035156 C989.45412192 994.95272692 988.80920603 1023.98355556 986.03125 1053.203125 C985.87408508 1054.89362976 985.87408508 1054.89362976 985.71374512 1056.61828613 C985.16029421 1062.45073431 984.51200211 1068.26542956 983.78125 1074.078125 C983.67864868 1074.91513947 983.57604736 1075.75215393 983.47033691 1076.61453247 C972.62915297 1164.7118836 950.12778202 1250.98503934 865.74023438 1434.28564453 C864.16079557 1436.9819722 862.59779324 1439.68728876 861.03991699 1442.39611816 C851.8664591 1458.3380115 842.30517813 1473.93884947 832.03125 1489.203125 C831.06759521 1490.63640137 831.06759521 1490.63640137 830.08447266 1492.09863281 C818.82773371 1508.80110155 807.1993865 1525.15445161 795.03125 1541.203125 C794.60344238 1541.7688623 794.17563477 1542.33459961 793.73486328 1542.91748047 C784.49553253 1555.1180882 774.83961168 1566.98707803 764.90551758 1578.62768555 C762.13535662 1581.87724902 759.44370913 1585.17761653 756.78125 1588.515625 C752.28752715 1594.04760872 747.43265723 1599.21007339 742.52246094 1604.37036133 C739.40437104 1607.6499739 736.3468553 1610.95879521 733.3828125 1614.37890625 C730.71537528 1617.45323433 727.94909978 1620.36206074 725.03125 1623.203125 C722.16198759 1626.03802499 719.38638289 1628.87433159 716.78125 1631.953125 C709.54126228 1640.39691116 701.44024039 1648.31859467 692.953125 1655.5 C690.54151068 1657.63712163 688.29585743 1659.91106779 686.03125 1662.203125 C682.5408356 1665.73067147 678.98480686 1669.07696974 675.21484375 1672.30078125 C673.02334941 1674.21000799 670.88796069 1676.17319041 668.7578125 1678.15039062 C663.62833926 1682.90882329 658.38675101 1687.44290468 652.93359375 1691.83203125 C649.64161825 1694.52143788 646.43123048 1697.29486207 643.21875 1700.078125 C636.86987174 1705.55741303 630.34911615 1710.78011729 623.71191406 1715.90478516 C622.11429023 1717.1389751 620.5218414 1718.37985538 618.9296875 1719.62109375 C598.26077788 1735.65912109 576.96265264 1750.93686638 555.03125 1765.203125 C553.86964355 1765.95964355 553.86964355 1765.95964355 552.68457031 1766.73144531 C481.62615097 1812.84645981 405.30325293 1848.74326241 217.03125 1903.203125 C216.26546631 1903.35503296 215.49968262 1903.50694092 214.71069336 1903.66345215 C176.18338943 1911.26694194 137.20012321 1916.39579192 98.03125 1919.203125 C96.22857414 1919.33411842 96.22857414 1919.33411842 94.38948059 1919.46775818 C82.27795603 1920.26666113 70.19750018 1920.38439278 58.0625 1920.40625 C56.44156685 1920.41049107 56.44156685 1920.41049107 54.78788757 1920.41481781 C49.04771696 1920.4297208 43.30757081 1920.43900139 37.56738281 1920.44335938 C32.91951485 1920.44770634 28.27183645 1920.46146313 23.62402344 1920.484375 C-5.71835192 1920.62599692 -34.74918056 1919.98108103 -63.96875 1917.203125 C-65.65925476 1917.04596008 -65.65925476 1917.04596008 -67.38391113 1916.88562012 C-73.21635931 1916.33216921 -79.03105456 1915.68387711 -84.84375 1914.953125 C-85.68076447 1914.85052368 -86.51777893 1914.74792236 -87.38015747 1914.64221191 C-175.4775086 1903.80102797 -261.75066434 1881.29965702 -445.05126953 1796.91210938 C-447.7475972 1795.33267057 -450.45291376 1793.76966824 -453.16174316 1792.21179199 C-469.1036365 1783.0383341 -484.70447447 1773.47705313 -499.96875 1763.203125 C-500.92426758 1762.56068848 -501.87978516 1761.91825195 -502.86425781 1761.25634766 C-519.56672655 1749.99960871 -535.92007661 1738.3712615 -551.96875 1726.203125 C-552.5344873 1725.77531738 -553.10022461 1725.34750977 -553.68310547 1724.90673828 C-565.8837132 1715.66740753 -577.75270303 1706.01148668 -589.39331055 1696.07739258 C-592.64287402 1693.30723162 -595.94324153 1690.61558413 -599.28125 1687.953125 C-604.81323372 1683.45940215 -609.97569839 1678.60453223 -615.13598633 1673.69433594 C-618.4155989 1670.57624604 -621.72442021 1667.5187303 -625.14453125 1664.5546875 C-628.21885933 1661.88725028 -631.12768574 1659.12097478 -633.96875 1656.203125 C-636.80364999 1653.33386259 -639.63995659 1650.55825789 -642.71875 1647.953125 C-651.16253616 1640.71313728 -659.08421967 1632.61211539 -666.265625 1624.125 C-668.40274663 1621.71338568 -670.67669279 1619.46773243 -672.96875 1617.203125 C-676.49629647 1613.7127106 -679.84259474 1610.15668186 -683.06640625 1606.38671875 C-684.97563299 1604.19522441 -686.93881541 1602.05983569 -688.91601562 1599.9296875 C-693.67444829 1594.80021426 -698.20852968 1589.55862601 -702.59765625 1584.10546875 C-705.28706288 1580.81349325 -708.06048707 1577.60310548 -710.84375 1574.390625 C-716.32303803 1568.04174674 -721.54574229 1561.52099115 -726.67041016 1554.88378906 C-727.9046001 1553.28616523 -729.14548038 1551.6937164 -730.38671875 1550.1015625 C-746.42474609 1529.43265288 -761.70249138 1508.13452764 -775.96875 1486.203125 C-776.4730957 1485.4287207 -776.97744141 1484.65431641 -777.49707031 1483.85644531 C-823.61208481 1412.79802597 -859.50888741 1336.47512793 -913.96875 1148.203125 C-914.12065796 1147.43734131 -914.27256592 1146.67155762 -914.42907715 1145.88256836 C-922.03256694 1107.35526443 -927.16141692 1068.37199821 -929.96875 1029.203125 C-930.05607895 1028.00134109 -930.1434079 1026.79955719 -930.23338318 1025.56135559 C-931.03228613 1013.44983103 -931.15001778 1001.36937518 -931.171875 989.234375 C-931.17470238 988.1537529 -931.17752975 987.0731308 -931.18044281 985.95976257 C-931.1953458 980.21959196 -931.20462639 974.47944581 -931.20898438 968.73925781 C-931.21333134 964.09138985 -931.22708813 959.44371145 -931.25 954.79589844 C-931.39162192 925.45352308 -930.74670603 896.42269444 -927.96875 867.203125 C-927.86397339 866.07612183 -927.75919678 864.94911865 -927.65124512 863.78796387 C-927.09779421 857.95551569 -926.44950211 852.14082044 -925.71875 846.328125 C-925.61614868 845.49111053 -925.51354736 844.65409607 -925.40783691 843.79171753 C-914.56665297 755.6943664 -892.06528202 669.42121066 -807.67773438 486.12060547 C-806.09829557 483.4242778 -804.53529324 480.71896124 -802.97741699 478.01013184 C-793.8039591 462.0682385 -784.24267813 446.46740053 -773.96875 431.203125 C-773.32631348 430.24760742 -772.68387695 429.29208984 -772.02197266 428.30761719 C-760.76523371 411.60514845 -749.1368865 395.25179839 -736.96875 379.203125 C-736.54094238 378.6373877 -736.11313477 378.07165039 -735.67236328 377.48876953 C-726.43303253 365.2881618 -716.77711168 353.41917197 -706.84301758 341.77856445 C-704.07285662 338.52900098 -701.38120913 335.22863347 -698.71875 331.890625 C-694.22502715 326.35864128 -689.37015723 321.19617661 -684.45996094 316.03588867 C-681.34187104 312.7562761 -678.2843553 309.44745479 -675.3203125 306.02734375 C-672.65287528 302.95301567 -669.88659978 300.04418926 -666.96875 297.203125 C-664.09948759 294.36822501 -661.32388289 291.53191841 -658.71875 288.453125 C-651.47876228 280.00933884 -643.37774039 272.08765533 -634.890625 264.90625 C-632.47901068 262.76912837 -630.23335743 260.49518221 -627.96875 258.203125 C-624.4783356 254.67557853 -620.92230686 251.32928026 -617.15234375 248.10546875 C-614.96084941 246.19624201 -612.82546069 244.23305959 -610.6953125 242.25585938 C-605.56583926 237.49742671 -600.32425101 232.96334532 -594.87109375 228.57421875 C-591.57911472 225.88480923 -588.36880506 223.11130546 -585.15625 220.328125 C-578.88899303 214.92169872 -572.45415482 209.77198226 -565.90820312 204.70849609 C-563.79140748 203.0654747 -561.68436113 201.41043992 -559.578125 199.75390625 C-551.16999632 193.15328316 -542.69606856 186.70170827 -533.93408203 180.578125 C-531.67962318 179.00084398 -529.43167346 177.41448407 -527.18359375 175.828125 C-517.21025996 168.80249936 -507.19543353 161.85552724 -496.96875 155.203125 C-496.1943457 154.6987793 -495.41994141 154.19443359 -494.62207031 153.67480469 C-426.26032806 109.30986154 -353.04941555 74.4414719 -275.96875 48.203125 C-275.32673645 47.98354126 -274.6847229 47.76395752 -274.02325439 47.53771973 C-201.56625455 22.77066743 -125.50478326 8.44205838 -49.3125 1.9296875 C-48.61532867 1.86961014 -47.91815735 1.80953278 -47.19985962 1.74763489 C-44.790448 1.5499524 -42.38021813 1.37404077 -39.96875 1.203125 C-38.79445435 1.11724121 -37.62015869 1.03135742 -36.41027832 0.94287109 C-24.27534981 0.10983322 -12.15967618 0.02190167 0 0 Z " fill="#F1DB20" transform="translate(930.96875,-0.203125)"/>
<path d="M0 0 C1.0806221 -0.00282738 2.1612442 -0.00565475 3.27461243 -0.00856781 C9.01478304 -0.0234708 14.75492919 -0.03275139 20.49511719 -0.03710938 C25.14298515 -0.04145634 29.79066355 -0.05521313 34.43847656 -0.078125 C63.78085192 -0.21974692 92.81168056 0.42516897 122.03125 3.203125 C123.15825317 3.30790161 124.28525635 3.41267822 125.44641113 3.52062988 C131.27885931 4.07408079 137.09355456 4.72237289 142.90625 5.453125 C143.74326447 5.55572632 144.58027893 5.65832764 145.44265747 5.76403809 C233.5400086 16.60522203 319.81316434 39.10659298 503.11376953 123.49414062 C505.8100972 125.07357943 508.51541376 126.63658176 511.22424316 128.19445801 C527.1661365 137.3679159 542.76697447 146.92919687 558.03125 157.203125 C558.98676758 157.84556152 559.94228516 158.48799805 560.92675781 159.14990234 C577.62922655 170.40664129 593.98257661 182.0349885 610.03125 194.203125 C610.5969873 194.63093262 611.16272461 195.05874023 611.74560547 195.49951172 C623.9462132 204.73884247 635.81520303 214.39476332 647.45581055 224.32885742 C650.70537402 227.09901838 654.00574153 229.79066587 657.34375 232.453125 C662.87573372 236.94684785 668.03819839 241.80171777 673.19848633 246.71191406 C676.4780989 249.83000396 679.78692021 252.8875197 683.20703125 255.8515625 C686.28135933 258.51899972 689.19018574 261.28527522 692.03125 264.203125 C694.86614999 267.07238741 697.70245659 269.84799211 700.78125 272.453125 C709.22503616 279.69311272 717.14671967 287.79413461 724.328125 296.28125 C726.46524663 298.69286432 728.73919279 300.93851757 731.03125 303.203125 C734.55879647 306.6935394 737.90509474 310.24956814 741.12890625 314.01953125 C743.03813299 316.21102559 745.00131541 318.34641431 746.97851562 320.4765625 C751.73694829 325.60603574 756.27102968 330.84762399 760.66015625 336.30078125 C763.34956288 339.59275675 766.12298707 342.80314452 768.90625 346.015625 C774.38553803 352.36450326 779.60824229 358.88525885 784.73291016 365.52246094 C785.9671001 367.12008477 787.20798038 368.7125336 788.44921875 370.3046875 C804.48724609 390.97359712 819.76499138 412.27172236 834.03125 434.203125 C834.78776855 435.36473145 834.78776855 435.36473145 835.55957031 436.54980469 C881.67458481 507.60822403 917.57138741 583.93112207 972.03125 772.203125 C972.25911194 773.35180054 972.25911194 773.35180054 972.49157715 774.52368164 C980.09506694 813.05098557 985.22391692 852.03425179 988.03125 891.203125 C988.16224342 893.00580086 988.16224342 893.00580086 988.29588318 894.84489441 C989.09478613 906.95641897 989.21251778 919.03687482 989.234375 931.171875 C989.23720238 932.2524971 989.24002975 933.3331192 989.24294281 934.44648743 C989.2578458 940.18665804 989.26712639 945.92680419 989.27148438 951.66699219 C989.27583134 956.31486015 989.28958813 960.96253855 989.3125 965.61035156 C989.45412192 994.95272692 988.80920603 1023.98355556 986.03125 1053.203125 C985.87408508 1054.89362976 985.87408508 1054.89362976 985.71374512 1056.61828613 C985.16029421 1062.45073431 984.51200211 1068.26542956 983.78125 1074.078125 C983.67864868 1074.91513947 983.57604736 1075.75215393 983.47033691 1076.61453247 C972.62915297 1164.7118836 950.12778202 1250.98503934 865.74023438 1434.28564453 C864.16079557 1436.9819722 862.59779324 1439.68728876 861.03991699 1442.39611816 C851.8664591 1458.3380115 842.30517813 1473.93884947 832.03125 1489.203125 C831.06759521 1490.63640137 831.06759521 1490.63640137 830.08447266 1492.09863281 C818.82773371 1508.80110155 807.1993865 1525.15445161 795.03125 1541.203125 C794.60344238 1541.7688623 794.17563477 1542.33459961 793.73486328 1542.91748047 C784.49553253 1555.1180882 774.83961168 1566.98707803 764.90551758 1578.62768555 C762.13535662 1581.87724902 759.44370913 1585.17761653 756.78125 1588.515625 C752.28752715 1594.04760872 747.43265723 1599.21007339 742.52246094 1604.37036133 C739.40437104 1607.6499739 736.3468553 1610.95879521 733.3828125 1614.37890625 C730.71537528 1617.45323433 727.94909978 1620.36206074 725.03125 1623.203125 C722.16198759 1626.03802499 719.38638289 1628.87433159 716.78125 1631.953125 C709.54126228 1640.39691116 701.44024039 1648.31859467 692.953125 1655.5 C690.54151068 1657.63712163 688.29585743 1659.91106779 686.03125 1662.203125 C682.5408356 1665.73067147 678.98480686 1669.07696974 675.21484375 1672.30078125 C673.02334941 1674.21000799 670.88796069 1676.17319041 668.7578125 1678.15039062 C663.62833926 1682.90882329 658.38675101 1687.44290468 652.93359375 1691.83203125 C649.64161825 1694.52143788 646.43123048 1697.29486207 643.21875 1700.078125 C636.86987174 1705.55741303 630.34911615 1710.78011729 623.71191406 1715.90478516 C622.11429023 1717.1389751 620.5218414 1718.37985538 618.9296875 1719.62109375 C598.26077788 1735.65912109 576.96265264 1750.93686638 555.03125 1765.203125 C553.86964355 1765.95964355 553.86964355 1765.95964355 552.68457031 1766.73144531 C481.62615097 1812.84645981 405.30325293 1848.74326241 217.03125 1903.203125 C216.26546631 1903.35503296 215.49968262 1903.50694092 214.71069336 1903.66345215 C176.18338943 1911.26694194 137.20012321 1916.39579192 98.03125 1919.203125 C96.22857414 1919.33411842 96.22857414 1919.33411842 94.38948059 1919.46775818 C82.27795603 1920.26666113 70.19750018 1920.38439278 58.0625 1920.40625 C56.44156685 1920.41049107 56.44156685 1920.41049107 54.78788757 1920.41481781 C49.04771696 1920.4297208 43.30757081 1920.43900139 37.56738281 1920.44335938 C32.91951485 1920.44770634 28.27183645 1920.46146313 23.62402344 1920.484375 C-5.71835192 1920.62599692 -34.74918056 1919.98108103 -63.96875 1917.203125 C-65.65925476 1917.04596008 -65.65925476 1917.04596008 -67.38391113 1916.88562012 C-73.21635931 1916.33216921 -79.03105456 1915.68387711 -84.84375 1914.953125 C-85.68076447 1914.85052368 -86.51777893 1914.74792236 -87.38015747 1914.64221191 C-175.4775086 1903.80102797 -261.75066434 1881.29965702 -445.05126953 1796.91210938 C-447.7475972 1795.33267057 -450.45291376 1793.76966824 -453.16174316 1792.21179199 C-469.1036365 1783.0383341 -484.70447447 1773.47705313 -499.96875 1763.203125 C-500.92426758 1762.56068848 -501.87978516 1761.91825195 -502.86425781 1761.25634766 C-519.56672655 1749.99960871 -535.92007661 1738.3712615 -551.96875 1726.203125 C-552.5344873 1725.77531738 -553.10022461 1725.34750977 -553.68310547 1724.90673828 C-565.8837132 1715.66740753 -577.75270303 1706.01148668 -589.39331055 1696.07739258 C-592.64287402 1693.30723162 -595.94324153 1690.61558413 -599.28125 1687.953125 C-604.81323372 1683.45940215 -609.97569839 1678.60453223 -615.13598633 1673.69433594 C-618.4155989 1670.57624604 -621.72442021 1667.5187303 -625.14453125 1664.5546875 C-628.21885933 1661.88725028 -631.12768574 1659.12097478 -633.96875 1656.203125 C-636.80364999 1653.33386259 -639.63995659 1650.55825789 -642.71875 1647.953125 C-651.16253616 1640.71313728 -659.08421967 1632.61211539 -666.265625 1624.125 C-668.40274663 1621.71338568 -670.67669279 1619.46773243 -672.96875 1617.203125 C-676.49629647 1613.7127106 -679.84259474 1610.15668186 -683.06640625 1606.38671875 C-684.97563299 1604.19522441 -686.93881541 1602.05983569 -688.91601562 1599.9296875 C-693.67444829 1594.80021426 -698.20852968 1589.55862601 -702.59765625 1584.10546875 C-705.28706288 1580.81349325 -708.06048707 1577.60310548 -710.84375 1574.390625 C-716.32303803 1568.04174674 -721.54574229 1561.52099115 -726.67041016 1554.88378906 C-727.9046001 1553.28616523 -729.14548038 1551.6937164 -730.38671875 1550.1015625 C-746.42474609 1529.43265288 -761.70249138 1508.13452764 -775.96875 1486.203125 C-776.4730957 1485.4287207 -776.97744141 1484.65431641 -777.49707031 1483.85644531 C-823.61208481 1412.79802597 -859.50888741 1336.47512793 -913.96875 1148.203125 C-914.12065796 1147.43734131 -914.27256592 1146.67155762 -914.42907715 1145.88256836 C-922.03256694 1107.35526443 -927.16141692 1068.37199821 -929.96875 1029.203125 C-930.05607895 1028.00134109 -930.1434079 1026.79955719 -930.23338318 1025.56135559 C-931.03228613 1013.44983103 -931.15001778 1001.36937518 -931.171875 989.234375 C-931.17470238 988.1537529 -931.17752975 987.0731308 -931.18044281 985.95976257 C-931.1953458 980.21959196 -931.20462639 974.47944581 -931.20898438 968.73925781 C-931.21333134 964.09138985 -931.22708813 959.44371145 -931.25 954.79589844 C-931.39162192 925.45352308 -930.74670603 896.42269444 -927.96875 867.203125 C-927.86397339 866.07612183 -927.75919678 864.94911865 -927.65124512 863.78796387 C-927.09779421 857.95551569 -926.44950211 852.14082044 -925.71875 846.328125 C-925.61614868 845.49111053 -925.51354736 844.65409607 -925.40783691 843.79171753 C-914.56665297 755.6943664 -892.06528202 669.42121066 -807.67773438 486.12060547 C-806.09829557 483.4242778 -804.53529324 480.71896124 -802.97741699 478.01013184 C-793.8039591 462.0682385 -784.24267813 446.46740053 -773.96875 431.203125 C-773.32631348 430.24760742 -772.68387695 429.29208984 -772.02197266 428.30761719 C-760.76523371 411.60514845 -749.1368865 395.25179839 -736.96875 379.203125 C-736.54094238 378.6373877 -736.11313477 378.07165039 -735.67236328 377.48876953 C-726.43303253 365.2881618 -716.77711168 353.41917197 -706.84301758 341.77856445 C-704.07285662 338.52900098 -701.38120913 335.22863347 -698.71875 331.890625 C-694.22502715 326.35864128 -689.37015723 321.19617661 -684.45996094 316.03588867 C-681.34187104 312.7562761 -678.2843553 309.44745479 -675.3203125 306.02734375 C-672.65287528 302.95301567 -669.88659978 300.04418926 -666.96875 297.203125 C-664.09948759 294.36822501 -661.32388289 291.53191841 -658.71875 288.453125 C-651.47876228 280.00933884 -643.37774039 272.08765533 -634.890625 264.90625 C-632.47901068 262.76912837 -630.23335743 260.49518221 -627.96875 258.203125 C-624.4783356 254.67557853 -620.92230686 251.32928026 -617.15234375 248.10546875 C-614.96084941 246.19624201 -612.82546069 244.23305959 -610.6953125 242.25585938 C-605.56583926 237.49742671 -600.32425101 232.96334532 -594.87109375 228.57421875 C-591.57911472 225.88480923 -588.36880506 223.11130546 -585.15625 220.328125 C-578.88899303 214.92169872 -572.45415482 209.77198226 -565.90820312 204.70849609 C-563.79140748 203.0654747 -561.68436113 201.41043992 -559.578125 199.75390625 C-551.16999632 193.15328316 -542.69606856 186.70170827 -533.93408203 180.578125 C-531.67962318 179.00084398 -529.43167346 177.41448407 -527.18359375 175.828125 C-517.21025996 168.80249936 -507.19543353 161.85552724 -496.96875 155.203125 C-496.1943457 154.6987793 -495.41994141 154.19443359 -494.62207031 153.67480469 C-426.26032806 109.30986154 -353.04941555 74.4414719 -275.96875 48.203125 C-275.32673645 47.98354126 -274.6847229 47.76395752 -274.02325439 47.53771973 C-201.56625455 22.77066743 -125.50478326 8.44205838 -49.3125 1.9296875 C-48.61532867 1.86961014 -47.91815735 1.80953278 -47.19985962 1.74763489 C-44.790448 1.5499524 -42.38021813 1.37404077 -39.96875 1.203125 C-38.79445435 1.11724121 -37.62015869 1.03135742 -36.41027832 0.94287109 C-24.27534981 0.10983322 -12.15967618 0.02190167 0 0 Z M-51.96875 97.203125 C-52.87486023 97.2926947 -53.78097046 97.3822644 -54.71453857 97.47454834 C-78.93216948 99.87611137 -103.01360488 102.88170288 -126.96875 107.203125 C-127.88301758 107.36635254 -128.79728516 107.52958008 -129.73925781 107.69775391 C-144.14833144 110.31081264 -158.33929387 113.88427656 -172.55566406 117.37451172 C-175.58248355 118.10934901 -178.61273883 118.82246507 -181.6484375 119.51953125 C-200.41852117 123.83255207 -218.7688303 129.43340912 -237.09375 135.328125 C-238.05532013 135.63694107 -238.05532013 135.63694107 -239.03631592 135.95199585 C-271.88814227 146.52754039 -303.78159755 159.46449489 -334.96875 174.203125 C-335.6428894 174.52063721 -336.31702881 174.83814941 -337.01159668 175.1652832 C-354.29771663 183.30755729 -371.34429327 191.766216 -387.96875 201.203125 C-389.00870117 201.7909375 -390.04865234 202.37875 -391.12011719 202.984375 C-419.01283815 218.78668372 -446.35327808 235.90346185 -472.20019531 254.90576172 C-474.28061045 256.43189728 -476.37105231 257.9438916 -478.4609375 259.45703125 C-488.31955108 266.62530334 -497.89249741 274.05872749 -507.28808594 281.82226562 C-509.5556371 283.68532045 -511.85456347 285.50749836 -514.15625 287.328125 C-522.92031094 294.32464424 -531.41963819 301.62694889 -539.71875 309.16796875 C-541.71864375 310.97690043 -543.74144432 312.75204301 -545.78125 314.515625 C-557.88869863 325.11181844 -569.2953877 336.37235038 -580.65478516 347.75878906 C-583.35595886 350.46535825 -586.06248429 353.16649396 -588.76953125 355.8671875 C-590.51073765 357.6090542 -592.25163409 359.3512308 -593.9921875 361.09375 C-594.79022797 361.88976624 -595.58826843 362.68578247 -596.41049194 363.50592041 C-600.59965387 367.71249522 -604.63578819 371.9951823 -608.50360107 376.49986267 C-610.56038978 378.89091703 -612.70374547 381.19908811 -614.84375 383.515625 C-618.91292391 387.97700845 -622.76852816 392.56257218 -626.55859375 397.26171875 C-628.78570291 399.97973041 -631.06088722 402.64357545 -633.36279297 405.29785156 C-638.97692345 411.77337188 -644.32463478 418.4018501 -649.484375 425.24609375 C-651.19557151 427.50217126 -652.9253636 429.74336964 -654.65625 431.984375 C-713.57670706 508.45163159 -759.21729763 595.05556633 -789.15907288 686.77125549 C-790.40130946 690.55348249 -791.71954611 694.29706138 -793.109375 698.02734375 C-794.99546924 703.1403013 -796.46409532 708.3088998 -797.84375 713.578125 C-800.83721267 724.82573973 -800.83721267 724.82573973 -802.44140625 730.20703125 C-806.51172156 743.87350561 -809.70166698 757.70022075 -812.74073792 771.62451172 C-813.57887889 775.45919344 -814.44763978 779.28486903 -815.34765625 783.10546875 C-818.82494285 798.06408457 -821.01839426 813.15588311 -823.14135742 828.35307312 C-823.79187259 832.99966416 -824.49326761 837.63548235 -825.22998047 842.26904297 C-827.20839297 854.82731506 -828.59483233 867.44594923 -829.77154541 880.10247803 C-829.9728486 882.24678377 -830.18230894 884.39019997 -830.39208984 886.53369141 C-835.54263792 940.15737558 -834.37253261 994.66591855 -828.96875 1048.203125 C-828.80693558 1049.84553735 -828.6451502 1051.48795257 -828.48339844 1053.13037109 C-827.57990278 1062.16175541 -826.50224963 1071.16105377 -825.25335693 1080.15106201 C-824.95971429 1082.26827399 -824.67251947 1084.38630877 -824.38525391 1086.50439453 C-817.80896985 1134.44253202 -806.41438047 1181.7458775 -791.15185547 1227.63476562 C-790.06656912 1230.90809318 -789.00010055 1234.18674497 -787.94140625 1237.46875 C-775.95400253 1274.41948719 -760.81346961 1310.19603579 -743.56494141 1344.97998047 C-742.06545635 1348.00784859 -740.58314125 1351.0434735 -739.10546875 1354.08203125 C-733.0384007 1366.48364025 -726.43389385 1378.52650654 -719.53564453 1390.48388672 C-718.05511361 1393.05324687 -716.58642126 1395.62897869 -715.12109375 1398.20703125 C-697.24042119 1429.5485066 -676.77015141 1459.37960207 -654.72558594 1487.92333984 C-653.21690065 1489.8811085 -651.71809904 1491.84556822 -650.2265625 1493.81640625 C-636.56239663 1511.8038246 -621.83868942 1528.98006354 -606.4863739 1545.54272461 C-605.33454047 1546.80292134 -604.19452891 1548.07393572 -603.06013489 1549.34985352 C-597.68579858 1555.39025249 -592.12563495 1561.19309059 -586.40234375 1566.90234375 C-585.52401382 1567.7816304 -584.6456839 1568.66091705 -583.74073792 1569.56684875 C-581.89910555 1571.40915638 -580.05623084 1573.25022288 -578.2121582 1575.09008789 C-575.40656215 1577.89031345 -572.60636344 1580.69585672 -569.80664062 1583.50195312 C-568.00552896 1585.30240414 -566.20410721 1587.10254501 -564.40234375 1588.90234375 C-563.16139198 1590.14633186 -563.16139198 1590.14633186 -561.89537048 1591.41545105 C-557.61561002 1595.67816078 -553.26827814 1599.79580951 -548.68197632 1603.72801208 C-546.10865178 1605.94368215 -543.64103725 1608.26362387 -541.15625 1610.578125 C-536.50836458 1614.8718788 -531.72458652 1618.9384434 -526.79296875 1622.90625 C-524.30634861 1624.92856347 -521.86567001 1626.99503437 -519.4362793 1629.08544922 C-511.9091548 1635.54979867 -504.07361519 1641.56280424 -496.15820312 1647.54150391 C-493.99731712 1649.18144483 -491.8484128 1650.83581466 -489.703125 1652.49609375 C-420.81996511 1705.76012034 -342.73965995 1747.31331763 -186.20605469 1799.64788818 C-184.62961799 1800.03911594 -183.05347257 1800.43151829 -181.47753906 1800.82476807 C-136.56056644 1812.0323132 -91.96867835 1819.81854508 -45.84375 1823.953125 C-44.56113281 1824.06873779 -43.27851562 1824.18435059 -41.95703125 1824.3034668 C-37.96307199 1824.64064913 -33.96813705 1824.93972298 -29.96875 1825.203125 C-29.23112427 1825.25184753 -28.49349854 1825.30057007 -27.73352051 1825.35076904 C-10.47017972 1826.4310192 6.80966921 1826.35764931 24.09863281 1826.33349609 C28.2063068 1826.32779919 32.31391613 1826.33120726 36.42158794 1826.33690548 C62.26873802 1826.36795959 87.68679828 1825.45292044 113.4152832 1822.78393555 C117.19590607 1822.39298725 120.97768132 1822.01518782 124.75976562 1821.63867188 C137.07793797 1820.39111833 149.35156533 1818.96818823 161.6015625 1817.1640625 C162.66791428 1817.00717453 163.73426605 1816.85028656 164.83293152 1816.68864441 C174.01822971 1815.28963288 183.09576571 1813.44564494 192.16796875 1811.44921875 C196.5955379 1810.48256621 201.03648154 1809.64928351 205.49609375 1808.84375 C215.0508038 1807.09074336 224.47354057 1804.82703963 233.90625 1802.515625 C234.79944946 1802.29791443 235.69264893 1802.08020386 236.61291504 1801.855896 C250.6576899 1798.42194196 264.49715548 1794.59045726 278.24584961 1790.10058594 C281.22357863 1789.14115637 284.2133863 1788.22880523 287.20703125 1787.3203125 C329.22063624 1774.43266554 369.59540487 1757.54191327 409.03125 1738.203125 C410.73982178 1737.3692627 410.73982178 1737.3692627 412.48291016 1736.51855469 C428.65280753 1728.61108865 444.52100013 1720.34016398 460.03125 1711.203125 C461.09746582 1710.57599609 462.16368164 1709.94886719 463.26220703 1709.30273438 C477.05099491 1701.15145092 490.58056366 1692.65453547 503.90625 1683.765625 C504.51647003 1683.35891571 505.12669006 1682.95220642 505.75540161 1682.53317261 C514.64120458 1676.59771332 523.36825878 1670.45855681 532.03125 1664.203125 C532.8970166 1663.57913818 533.7627832 1662.95515137 534.65478516 1662.31225586 C545.15500825 1654.71511304 555.36034245 1646.83888359 565.35058594 1638.58398438 C567.6181371 1636.72092955 569.91706347 1634.89875164 572.21875 1633.078125 C580.98281094 1626.08160576 589.48213819 1618.77930111 597.78125 1611.23828125 C599.78114375 1609.42934957 601.80394432 1607.65420699 603.84375 1605.890625 C615.95119863 1595.29443156 627.3578877 1584.03389962 638.71728516 1572.64746094 C641.41845886 1569.94089175 644.12498429 1567.23975604 646.83203125 1564.5390625 C648.57323765 1562.7971958 650.31413409 1561.0550192 652.0546875 1559.3125 C652.85272797 1558.51648376 653.65076843 1557.72046753 654.47299194 1556.90032959 C658.66215387 1552.69375478 662.69828819 1548.4110677 666.56610107 1543.90638733 C668.62288978 1541.51533297 670.76624547 1539.20716189 672.90625 1536.890625 C676.97542391 1532.42924155 680.83102816 1527.84367782 684.62109375 1523.14453125 C686.84820291 1520.42651959 689.12338722 1517.76267455 691.42529297 1515.10839844 C697.03942345 1508.63287812 702.38713478 1502.0043999 707.546875 1495.16015625 C709.25807151 1492.90407874 710.9878636 1490.66288036 712.71875 1488.421875 C759.18894218 1428.1126329 797.03520262 1361.31311656 826.25579834 1291.06713867 C826.95536379 1289.3855386 827.65838084 1287.70537545 828.36181641 1286.02539062 C833.81744642 1272.94660489 838.49314852 1259.6238898 843.03125 1246.203125 C843.43134277 1245.02862793 843.83143555 1243.85413086 844.24365234 1242.64404297 C849.59448637 1226.92120336 854.73553645 1211.1621663 859.20458984 1195.16162109 C859.76228427 1193.16571411 860.32523322 1191.17126888 860.89306641 1189.17822266 C865.81070768 1171.89387794 869.64940499 1154.47022885 873.25170898 1136.87719727 C873.96106153 1133.53393184 874.74283712 1130.2189387 875.55078125 1126.8984375 C877.51667653 1118.47658345 878.72049695 1109.94212171 879.96875 1101.390625 C880.16292511 1100.06966324 880.16292511 1100.06966324 880.36102295 1098.72201538 C881.14828921 1093.35804758 881.9218026 1087.99223405 882.68560791 1082.62487793 C882.99709455 1080.44243633 883.31291496 1078.26068107 883.63037109 1076.07910156 C884.96215867 1066.80618279 886.07426294 1057.52094677 887.03125 1048.203125 C887.16593689 1046.90027557 887.16593689 1046.90027557 887.30334473 1045.57110596 C893.18290782 987.89798307 892.89088887 929.86099572 887.03125 872.203125 C886.94447998 871.33725769 886.85770996 870.47139038 886.76831055 869.57928467 C884.99595123 851.97676593 882.63773197 834.50235662 879.53564453 817.08154297 C878.81721751 812.98171015 878.15078786 808.87379542 877.48046875 804.76586914 C875.24959595 791.14115413 872.796631 777.72200757 869.125 764.3984375 C867.80486982 759.47425628 866.74834857 754.4942461 865.65625 749.515625 C863.67495806 740.58101851 861.25314173 731.8655673 858.5390625 723.12890625 C857.55986204 719.97281072 856.63464324 716.8113765 855.7734375 713.62109375 C852.51481789 701.59060897 848.62066941 689.80639911 844.59375 678.015625 C844.18731766 676.82069427 844.18731766 676.82069427 843.77267456 675.60162354 C839.82284133 664.0139146 835.56234039 652.57575495 831.03125 641.203125 C830.61319092 640.15229736 830.19513184 639.10146973 829.7644043 638.01879883 C828.71775844 635.40924204 827.65999735 632.80472806 826.59375 630.203125 C826.21814941 629.2857959 825.84254883 628.3684668 825.45556641 627.42333984 C822.41130569 620.03451889 819.21275377 612.72285045 815.9296875 605.4375 C814.68101916 602.66634366 813.4565759 599.88685536 812.2578125 597.09375 C808.52889141 588.40625796 804.53121906 579.90858668 800.21044922 571.49951172 C799.38044178 569.88314526 798.55429352 568.26479418 797.73095703 566.64501953 C790.47652441 552.38454114 782.67841955 538.52089669 774.52929688 524.75439453 C772.64990945 521.55367769 770.83936147 518.31958979 769.03125 515.078125 C760.46293566 500.01922062 750.80773015 485.50326251 741.03125 471.203125 C740.27473145 470.09517578 740.27473145 470.09517578 739.50292969 468.96484375 C730.9689407 456.5128622 722.01436783 444.42928176 712.78808594 432.48291016 C711.27940065 430.5251415 709.78059904 428.56068178 708.2890625 426.58984375 C694.62489663 408.6024254 679.90118942 391.42618646 664.5488739 374.86352539 C663.39704047 373.60332866 662.25702891 372.33231428 661.12263489 371.05639648 C655.74829858 365.01599751 650.18813495 359.21315941 644.46484375 353.50390625 C643.58651382 352.6246196 642.7081839 351.74533295 641.80323792 350.83940125 C639.96160555 348.99709362 638.11873084 347.15602712 636.2746582 345.31616211 C633.46906215 342.51593655 630.66886344 339.71039328 627.86914062 336.90429688 C626.06802896 335.10384586 624.26660721 333.30370499 622.46484375 331.50390625 C621.63754257 330.67458084 620.81024139 329.84525543 619.95787048 328.99079895 C615.67811002 324.72808922 611.33077814 320.61044049 606.74447632 316.67823792 C604.17115178 314.46256785 601.70353725 312.14262613 599.21875 309.828125 C594.57086458 305.5343712 589.78708652 301.4678066 584.85546875 297.5 C582.36884861 295.47768653 579.92817001 293.41121563 577.4987793 291.32080078 C569.9716548 284.85645133 562.13611519 278.84344576 554.22070312 272.86474609 C552.05981712 271.22480517 549.9109128 269.57043534 547.765625 267.91015625 C507.01183615 236.39721613 462.8796076 209.59752467 417.03125 186.203125 C415.93409668 185.64093262 414.83694336 185.07874023 413.70654297 184.49951172 C397.38943382 176.15791634 380.93893181 168.28217237 364.03125 161.203125 C362.34370605 160.49639648 362.34370605 160.49639648 360.62207031 159.77539062 C341.65046091 151.89204225 322.39770993 144.95889029 302.97859192 138.26951599 C298.96326158 136.88388205 294.96788702 135.45583083 290.984375 133.98046875 C286.52936354 132.34782147 282.05195692 130.98643526 277.46875 129.765625 C275.90749755 129.34134646 274.34630124 128.91686126 272.78515625 128.4921875 C271.99898926 128.27981445 271.21282227 128.06744141 270.40283203 127.84863281 C268.07633545 127.21539656 265.7544062 126.56779851 263.43359375 125.9140625 C254.51325733 123.40149467 245.57203957 121.01456893 236.56640625 118.82470703 C233.55188387 118.08559166 230.54187964 117.32903154 227.53125 116.57421875 C211.12549962 112.49649534 194.6974468 109.03215399 178.03125 106.203125 C177.15291504 106.05391602 176.27458008 105.90470703 175.36962891 105.75097656 C169.93228196 104.83920996 164.48568685 104.00548644 159.03125 103.203125 C158.26828613 103.08759277 157.50532227 102.97206055 156.71923828 102.85302734 C144.72514981 101.04786394 132.68465174 99.67091698 120.62390137 98.40084839 C119.03457183 98.23324744 117.44544168 98.0637393 115.85656738 97.89187622 C87.98501018 94.89510846 60.1734458 93.81843232 32.1601944 93.88506699 C29.73503045 93.89073298 27.30987358 93.89353758 24.88470459 93.89614868 C-0.83379359 93.93632866 -26.36372064 94.62352514 -51.96875 97.203125 Z " fill="#000000" transform="translate(930.96875,-0.203125)"/>
<path d="M0 0 C64.989375 -0.061875 129.97875 -0.12375 196.9375 -0.1875 C217.43609131 -0.21481201 237.93468262 -0.24212402 259.05444336 -0.27026367 C284.14172363 -0.28381348 284.14172363 -0.28381348 295.89698792 -0.28633118 C304.08341581 -0.28911903 312.26978167 -0.30008205 320.45619202 -0.31672668 C329.91543991 -0.33593055 339.3746287 -0.34448282 348.83389619 -0.34033485 C353.66446145 -0.33854088 358.49489492 -0.34122484 363.32543552 -0.35764539 C383.10027827 -0.4216418 402.41289261 -0.1270237 422 3 C423.34345491 3.20556431 424.68691865 3.41107092 426.03039455 3.61649799 C454.12664085 8.08979384 483.17221833 18.2123945 505 37 C505.87527344 37.75023437 506.75054688 38.50046875 507.65234375 39.2734375 C510.14683849 41.47159377 512.58022012 43.72013937 515 46 C515.67546875 46.61101563 516.3509375 47.22203125 517.046875 47.8515625 C540.00344561 69.43073888 550.32229824 100.86262334 556.25 130.875 C556.41338867 131.69403809 556.57677734 132.51307617 556.74511719 133.35693359 C559.26561268 146.82734285 559.18637739 160.41900639 559.18530273 174.07250977 C559.18748322 177.16371567 559.2056815 180.25456027 559.22460938 183.34570312 C559.35450259 228.73588894 548.01209513 274.77428999 515.76953125 308.26171875 C490.00715666 333.73340364 454.34851004 346.91195689 419 352 C420.80019667 357.03236795 423.41613022 361.59016275 426 366.25 C426.49056885 367.13824463 426.9811377 368.02648926 427.48657227 368.94165039 C430.95287709 375.18769185 434.52059534 381.36629225 438.16699219 387.50854492 C441.42087904 392.99328746 444.59640553 398.51955262 447.75 404.0625 C452.1188088 411.736746 456.5410279 419.37779934 461 427 C465.37381463 434.47740756 469.71437145 441.9716961 474 449.5 C478.22615908 456.92231931 482.50181153 464.31395393 486.8125 471.6875 C496.31811782 487.94877384 505.73567965 504.2605136 515.0625 520.625 C519.84261448 529.01043468 524.69381681 537.35285318 529.56518555 545.68554688 C535.87945495 556.49164281 542.13341753 567.33217898 548.37451172 578.18066406 C549.81778652 580.68395896 551.26813574 583.18291679 552.72265625 585.6796875 C553.29814209 586.67234619 553.29814209 586.67234619 553.88525391 587.68505859 C554.84680289 589.34356326 555.8118901 591.00001529 556.77734375 592.65625 C558 595 558 595 558 597 C541.28430429 597.21033756 524.56903843 597.36899423 507.85233879 597.46630955 C500.09023654 597.51269822 492.32895696 597.5759274 484.56738281 597.67895508 C477.80151034 597.76872285 471.03623362 597.82673783 464.26978219 597.84679645 C460.68732257 597.85852096 457.10656709 597.88602288 453.52465439 597.95157051 C449.52332087 598.02419794 445.52493975 598.02590581 441.52294922 598.02172852 C439.7459388 598.07026474 439.7459388 598.07026474 437.93302917 598.11978149 C430.07953034 598.03094027 430.07953034 598.03094027 426.97626114 595.06735039 C425.41759552 592.76949931 424.18353564 590.50838824 423 588 C422.24749657 586.6712685 421.48843829 585.34619504 420.71875 584.02734375 C419.97613299 582.66571265 419.23668227 581.30235109 418.5 579.9375 C414.5709288 572.76524171 410.512348 565.67903904 406.375 558.625 C401.1917722 549.78264665 396.07297619 540.90586441 391 532 C386.04651795 523.30581259 381.05630527 514.63496881 376 506 C370.5964354 496.77199471 365.27347639 487.5000533 359.97949219 478.20898438 C355.36497196 470.11255867 350.70904745 462.04193491 346 454 C340.5964354 444.77199471 335.27347639 435.5000533 329.97949219 426.20898438 C324.81398709 417.14582586 319.58516189 408.12160296 314.31323242 399.11987305 C308.88863739 389.84261352 303.55798379 380.51259369 298.24023438 371.17382812 C297.60021484 370.05041016 296.96019531 368.92699219 296.30078125 367.76953125 C295.73528564 366.77542236 295.16979004 365.78131348 294.5871582 364.75708008 C293.52209559 362.90694131 292.42350057 361.07573672 291.29370117 359.2644043 C290 357 290 357 290 355 C231.26 355 172.52 355 112 355 C112 434.86 112 514.72 112 597 C75.04 597 38.08 597 0 597 C0 399.99 0 202.98 0 0 Z " fill="#000000" transform="translate(309,645)"/>
<path d="M0 0 C3.91980556 0.01321806 7.83960102 0.00855315 11.75942266 0.00629318 C18.51649572 0.00473634 25.27348044 0.01397648 32.03053129 0.03100669 C41.79952193 0.05561178 51.56847079 0.06322367 61.33748905 0.06697067 C77.19528006 0.07350186 93.05302421 0.09337147 108.91078985 0.1218785 C124.29555312 0.14950611 139.68030358 0.17069683 155.06508672 0.18340194 C156.01681877 0.18419011 156.96855081 0.18497828 157.94912323 0.18579034 C162.72470289 0.18970606 167.50028264 0.19349704 172.27586246 0.19722605 C211.75992613 0.22821794 251.24390292 0.28346406 290.72792852 0.34819686 C290.72792852 37.30819686 290.72792852 74.26819686 290.72792852 112.34819686 C276.56544195 112.36221542 276.56544195 112.36221542 262.11684453 112.37651718 C231.82284677 112.40930334 201.52891057 112.46164319 171.23496434 112.52611782 C166.52046118 112.53613392 161.80595766 112.54597828 157.09145391 112.5557164 C155.68373915 112.55862845 155.68373915 112.55862845 154.24758571 112.56159934 C139.1004738 112.59252485 123.95337699 112.60957349 108.80623949 112.62139109 C93.23563514 112.63385183 77.66510939 112.66146338 62.09455472 112.70280993 C52.50556426 112.72780524 42.91670437 112.74132444 33.32768088 112.73962644 C26.7303291 112.73959642 20.1331092 112.75443213 13.53580893 112.78036115 C9.7433552 112.79484597 5.95117178 112.80335185 2.15869558 112.79399955 C-47.89411857 112.6849602 -93.90407629 125.67534801 -131.11582148 160.34429061 C-133.11909072 162.20602453 -135.17780445 163.96550847 -137.27207148 165.72319686 C-167.25818856 192.12531589 -184.89418156 230.50467299 -191.27207148 269.34819686 C-191.44947871 270.41062606 -191.62688593 271.47305526 -191.80966914 272.56767929 C-192.35630554 277.03687926 -192.48941627 281.42800671 -192.54550898 285.92632186 C-192.5643011 287.30079734 -192.5643011 287.30079734 -192.58347285 288.70304 C-192.80795829 309.07971731 -192.68651303 328.54557798 -187.27207148 348.34819686 C-187.04745234 349.18157577 -186.8228332 350.01495468 -186.59140742 350.87358749 C-185.11245226 356.15649282 -183.32156145 361.2611708 -181.27207148 366.34819686 C-180.95254511 367.1424205 -180.63301875 367.93664413 -180.30380976 368.75493515 C-160.91009821 415.99083023 -123.21825435 451.95044342 -76.72617304 472.32475936 C-70.70752736 474.83472382 -64.57192868 476.6953345 -58.27207148 478.34819686 C-57.28424677 478.62204208 -57.28424677 478.62204208 -56.27646601 478.90141952 C-48.09187395 481.15754235 -39.97268995 482.65558627 -31.51775324 483.44155014 C-30.15079584 483.56906506 -30.15079584 483.56906506 -28.75622314 483.69915605 C-19.01244715 484.54580594 -9.30309209 484.65622272 0.47133672 484.66704452 C2.44485658 484.67637569 4.4183726 484.6865489 6.39188421 484.6974858 C11.67558804 484.72444114 16.95926577 484.73983105 22.2430197 484.75291383 C27.79231513 484.76869777 33.34155837 484.79543804 38.89081609 484.82094467 C49.36613997 484.86746531 59.84147398 484.90433745 70.31684738 484.93761754 C84.49553165 484.98323204 98.67415076 485.04400599 112.8527807 485.1038655 C135.14446375 485.19758266 157.43616657 485.27126589 179.72792852 485.34819686 C179.72792852 442.44819686 179.72792852 399.54819686 179.72792852 355.34819686 C118.01792852 355.34819686 56.30792852 355.34819686 -7.27207148 355.34819686 C-7.27207148 318.38819686 -7.27207148 281.42819686 -7.27207148 243.34819686 C91.06792852 243.34819686 189.40792852 243.34819686 290.72792852 243.34819686 C290.72792852 360.16819686 290.72792852 476.98819686 290.72792852 597.34819686 C212.92011602 597.44100936 212.92011602 597.44100936 133.54042852 597.53569686 C117.2026087 597.56300888 100.86478887 597.59032089 84.0318836 597.61846054 C63.97731817 597.63201034 63.97731817 597.63201034 54.56879461 597.63452804 C48.04170212 597.63730655 41.51468817 597.64822907 34.98761785 597.66492355 C27.43422491 597.68421403 19.88090631 597.69266004 12.32748864 597.68853172 C8.4754076 597.68674821 4.623492 597.6892847 0.77144241 597.70584226 C-23.76253613 597.80613136 -48.24760333 596.75187663 -72.27207148 591.34819686 C-73.43682002 591.09731308 -73.43682002 591.09731308 -74.62509882 590.84136093 C-118.72539338 581.30570271 -159.64818099 561.31135605 -194.27207148 532.34819686 C-195.20793086 531.59667343 -196.14379023 530.84514999 -197.10800898 530.07085311 C-205.58441027 523.14700774 -213.33593154 515.50001376 -221.08457148 507.78569686 C-221.88799479 506.99003814 -221.88799479 506.99003814 -222.70764887 506.17830551 C-229.69934479 499.23988628 -236.1796401 492.10674439 -242.27207148 484.34819686 C-242.74701045 483.75820907 -243.22194941 483.16822128 -243.71128047 482.56035507 C-255.52684625 467.88244035 -265.56353081 452.03759215 -274.27207148 435.34819686 C-274.91910029 434.13510849 -274.91910029 434.13510849 -275.57920039 432.89751327 C-293.17089802 399.62165148 -301.50624564 363.56341694 -305.27207148 326.34819686 C-305.36778437 325.47936874 -305.46349726 324.61054061 -305.56211054 323.71538436 C-311.31219119 267.98700415 -299.67927242 209.61893902 -273.27207148 160.34819686 C-272.92176875 159.69158065 -272.57146601 159.03496444 -272.21054804 158.35845077 C-262.12584884 139.59801078 -250.07564073 121.34562824 -235.50254023 105.75444686 C-233.67823828 103.78637331 -231.92858965 101.78658464 -230.18222773 99.75054061 C-225.96719931 94.91937868 -221.48161942 90.37166537 -216.94882929 85.83965194 C-215.53287201 84.42151402 -214.12508859 82.99523022 -212.71738398 81.56889999 C-206.54866738 75.38729609 -200.12854471 69.75220642 -193.27207148 64.34819686 C-192.57807246 63.78962997 -191.88407343 63.23106308 -191.16904414 62.65556991 C-135.75360554 18.18909249 -70.21444279 -0.29845861 0 0 Z " fill="#000000" transform="translate(1306.272071480751,644.6518031358719)"/>
<path d="M0 0 C68.03450461 -0.12099405 68.03450461 -0.12099405 96.51953125 -0.14648438 C103.03857445 -0.15235724 109.55761743 -0.15841848 116.07666016 -0.16479492 C117.30210122 -0.16598179 117.30210122 -0.16598179 118.55229867 -0.16719264 C131.71019731 -0.18021056 144.86805628 -0.20384534 158.02593146 -0.23145839 C171.54774429 -0.25959675 185.06953647 -0.27619401 198.59137738 -0.28226548 C206.92285194 -0.28636452 215.25421438 -0.29927085 223.58565439 -0.3237494 C229.31294782 -0.3397109 235.040184 -0.34437704 240.767498 -0.34050413 C244.06289813 -0.33859861 247.35806479 -0.34302809 250.65343857 -0.35761642 C286.04910436 -0.50652521 286.04910436 -0.50652521 301 6.1875 C302.04377808 6.63706055 302.04377808 6.63706055 303.10864258 7.09570312 C309.17812511 9.83562078 314.21761055 13.34837901 319 18 C319.8353125 18.77730469 319.8353125 18.77730469 320.6875 19.5703125 C332.5226634 31.83696624 335.54351972 49.225449 335.375 65.5625 C335.38660156 66.69107422 335.39820313 67.81964844 335.41015625 68.98242188 C335.37315822 79.70568494 333.32437248 89.54935477 328.4375 99.125 C328.09307861 99.80095215 327.74865723 100.4769043 327.39379883 101.17333984 C319.19971918 116.45266307 305.23133247 122.92227872 289.33512688 127.82127857 C276.71963158 131.06628217 263.82121422 130.3966454 250.89111328 130.34057617 C248.15016432 130.33805223 245.40922299 130.34007515 242.66827393 130.34190369 C236.79057815 130.34346868 230.9129831 130.33414109 225.03531265 130.31719017 C216.53744406 130.29269882 208.03962365 130.2849846 199.54172359 130.2812262 C185.75093273 130.27467752 171.96019542 130.25475957 158.16943359 130.22631836 C144.78141542 130.19873663 131.39341193 130.17755768 118.00537109 130.16479492 C117.17025722 130.16399093 116.33514334 130.16318694 115.47472298 130.16235858 C108.94255568 130.15611948 102.41038806 130.150249 95.87822032 130.14449489 C63.91876438 130.11624801 31.95944266 130.05588039 0 130 C0 87.1 0 44.2 0 0 Z " fill="#F1DB20" transform="translate(421,757)"/>
</svg>
